<svg width="88" height="88" viewBox="0 0 88 88" fill="none" xmlns="http://www.w3.org/2000/svg">
<rect width="88" height="88" rx="44" fill="white"/>
<path d="M44 80.4375C64.1239 80.4375 80.4375 64.1239 80.4375 44C80.4375 23.8761 64.1239 7.5625 44 7.5625C23.8761 7.5625 7.5625 23.8761 7.5625 44C7.5625 64.1239 23.8761 80.4375 44 80.4375Z" fill="url(#paint0_linear_50_1689)"/>
<path d="M61.7349 28.5283L55.2303 61.3363C55.2303 61.3363 54.3193 63.6136 51.8143 62.5176L36.798 51.0028L31.3324 48.3696L22.1376 45.281C22.1376 45.281 20.7285 44.7828 20.5862 43.6868C20.4438 42.5909 22.1803 42.0073 22.1803 42.0073L58.7317 27.6743C58.7317 27.66 61.7349 26.3363 61.7349 28.5283Z" fill="white"/>
<path d="M35.6308 60.9662C35.6308 60.9662 35.1895 60.9235 34.6487 59.2013C34.1078 57.479 31.3323 48.3697 31.3323 48.3697L53.4083 34.3498C53.4083 34.3498 54.6893 33.5812 54.6324 34.3498C54.6324 34.3498 54.8601 34.4921 54.1769 35.1184C53.4937 35.7589 36.8406 50.7324 36.8406 50.7324" fill="#D2E4F0"/>
<path d="M42.5482 55.4152L36.6129 60.8381C36.6129 60.8381 36.1432 61.1939 35.645 60.9662L36.7837 50.9032" fill="#B5CFE4"/>
<defs>
<linearGradient id="paint0_linear_50_1689" x1="44" y1="7.5625" x2="44" y2="80.1716" gradientUnits="userSpaceOnUse">
<stop stop-color="#41BCE7"/>
<stop offset="1" stop-color="#22A6DC"/>
</linearGradient>
</defs>
</svg>
