<svg width="88" height="88" viewBox="0 0 88 88" fill="none" xmlns="http://www.w3.org/2000/svg">
<rect width="88" height="88" rx="44" fill="url(#paint0_linear_50_1684)"/>
<path d="M44 19.3776C52.0168 19.3776 52.9672 19.404 56.1352 19.5536C59.0656 19.6856 60.6584 20.1784 61.7144 20.592C63.1136 21.1376 64.1168 21.7888 65.164 22.836C66.2112 23.8832 66.8624 24.8864 67.408 26.2856C67.8216 27.3416 68.3056 28.9344 68.4464 31.8648C68.5872 35.0328 68.6224 35.9832 68.6224 44C68.6224 52.0168 68.596 52.9672 68.4464 56.1352C68.3144 59.0656 67.8216 60.6584 67.408 61.7144C66.8624 63.1136 66.2112 64.1168 65.164 65.164C64.1168 66.2112 63.1136 66.8624 61.7144 67.408C60.6584 67.8216 59.0656 68.3056 56.1352 68.4464C52.9672 68.5872 52.0168 68.6224 44 68.6224C35.9832 68.6224 35.0328 68.596 31.8648 68.4464C28.9344 68.3144 27.3416 67.8216 26.2856 67.408C24.8864 66.8624 23.8832 66.2112 22.836 65.164C21.7888 64.1168 21.1376 63.1136 20.592 61.7144C20.1784 60.6584 19.6944 59.0656 19.5536 56.1352C19.4128 52.9672 19.3776 52.0168 19.3776 44C19.3776 35.9832 19.404 35.0328 19.5536 31.8648C19.6856 28.9344 20.1784 27.3416 20.592 26.2856C21.1376 24.8864 21.7888 23.8832 22.836 22.836C23.8832 21.7888 24.8864 21.1376 26.2856 20.592C27.3416 20.1784 28.9344 19.6944 31.8648 19.5536C35.0328 19.404 35.9832 19.3776 44 19.3776ZM44 13.9656C35.8424 13.9656 34.8216 14.0008 31.6184 14.1504C28.424 14.3 26.2416 14.8016 24.3232 15.5496C22.352 16.3064 20.6712 17.336 19.008 19.008C17.336 20.68 16.3152 22.352 15.5408 24.332C14.8016 26.2416 14.2912 28.424 14.1416 31.6272C13.992 34.8304 13.9568 35.8512 13.9568 44.0088C13.9568 52.1664 13.992 53.1872 14.1416 56.3904C14.2912 59.5848 14.7928 61.7672 15.5408 63.6856C16.3064 65.648 17.336 67.3288 19.008 68.992C20.68 70.664 22.352 71.6848 24.332 72.4592C26.2416 73.1984 28.424 73.7088 31.6272 73.8584C34.8304 74.008 35.8512 74.0432 44.0088 74.0432C52.1664 74.0432 53.1872 74.008 56.3904 73.8584C59.5848 73.7088 61.7672 73.2072 63.6856 72.4592C65.648 71.6936 67.3288 70.664 68.992 68.992C70.664 67.32 71.6848 65.648 72.4592 63.668C73.1984 61.7584 73.7088 59.576 73.8584 56.3728C74.008 53.1696 74.0432 52.1488 74.0432 43.9912C74.0432 35.8336 74.008 34.8128 73.8584 31.6096C73.7088 28.4152 73.2072 26.2328 72.4592 24.3144C71.6936 22.352 70.664 20.6712 68.992 19.008C67.32 17.336 65.648 16.3152 63.668 15.5408C61.7584 14.8016 59.576 14.2912 56.3728 14.1416C53.1784 14.0008 52.1576 13.9656 44 13.9656Z" fill="white"/>
<path d="M43.9999 28.5736C35.4815 28.5736 28.5735 35.4816 28.5735 44C28.5735 52.5184 35.4815 59.4264 43.9999 59.4264C52.5183 59.4264 59.4263 52.5184 59.4263 44C59.4263 35.4816 52.5183 28.5736 43.9999 28.5736ZM43.9999 54.0144C38.4735 54.0144 33.9855 49.5352 33.9855 44C33.9855 38.4648 38.4735 33.9856 43.9999 33.9856C49.5263 33.9856 54.0143 38.4648 54.0143 44C54.0143 49.5352 49.5263 54.0144 43.9999 54.0144Z" fill="white"/>
<path d="M60.0337 31.5744C62.0263 31.5744 63.6417 29.959 63.6417 27.9664C63.6417 25.9738 62.0263 24.3584 60.0337 24.3584C58.041 24.3584 56.4257 25.9738 56.4257 27.9664C56.4257 29.959 58.041 31.5744 60.0337 31.5744Z" fill="white"/>
<defs>
<linearGradient id="paint0_linear_50_1684" x1="12.8873" y1="75.1127" x2="75.1127" y2="12.8873" gradientUnits="userSpaceOnUse">
<stop stop-color="#FFD521"/>
<stop offset="0.0551048" stop-color="#FFD020"/>
<stop offset="0.1241" stop-color="#FEC01E"/>
<stop offset="0.2004" stop-color="#FCA71B"/>
<stop offset="0.2821" stop-color="#FA8316"/>
<stop offset="0.3681" stop-color="#F85510"/>
<stop offset="0.4563" stop-color="#F51E09"/>
<stop offset="0.5" stop-color="#F30005"/>
<stop offset="0.5035" stop-color="#F20007"/>
<stop offset="0.5966" stop-color="#E1003B"/>
<stop offset="0.6879" stop-color="#D30067"/>
<stop offset="0.7757" stop-color="#C70088"/>
<stop offset="0.8589" stop-color="#BF00A0"/>
<stop offset="0.9357" stop-color="#BB00AF"/>
<stop offset="1" stop-color="#B900B4"/>
</linearGradient>
</defs>
</svg>
